<svg width="350" height="350" viewBox="0 0 350 350" fill="none" xmlns="http://www.w3.org/2000/svg">
<path d="M139 247.4C125.2 247.4 114.3 242.8 106.3 233.6C98.3 224.4 94.3 211.8 94.3 195.8C94.3 180.2 98.2 167.7 106 158.3C114 148.9 125 144.2 139 144.2C145 144.2 151.3 145.8 157.9 149C164.5 152.2 170.2 158.1 175 166.7C180 158.1 185.7 152.2 192.1 149C198.5 145.8 204.7 144.2 210.7 144.2C224.7 144.2 235.7 148.9 243.7 158.3C251.7 167.7 255.7 180.2 255.7 195.8C255.7 211.8 251.6 224.4 243.4 233.6C235.4 242.8 224.5 247.4 210.7 247.4C204.7 247.4 198.5 245.8 192.1 242.6C185.7 239.4 180 233.4 175 224.6C170.2 233.4 164.5 239.4 157.9 242.6C151.3 245.8 145 247.4 139 247.4ZM140.8 219.8C145.6 219.8 150.2 218 154.6 214.4C159 210.6 162.5 204.3 165.1 195.5C162.5 186.7 159 180.6 154.6 177.2C150.2 173.6 145.6 171.8 140.8 171.8C135 171.8 130.5 174.2 127.3 179C124.1 183.6 122.5 189.2 122.5 195.8C122.5 202.4 124.1 208.1 127.3 212.9C130.5 217.5 135 219.8 140.8 219.8ZM209.2 219.8C214.8 219.8 219.2 217.5 222.4 212.9C225.8 208.1 227.5 202.4 227.5 195.8C227.5 189.2 225.8 183.6 222.4 179C219.2 174.2 214.8 171.8 209.2 171.8C204.4 171.8 199.8 173.6 195.4 177.2C191 180.6 187.5 186.7 184.9 195.5C187.5 204.3 191 210.6 195.4 214.4C199.8 218 204.4 219.8 209.2 219.8Z" fill="#351D6B"/>
<path d="M228.589 131.761C230.244 132.63 232.14 133.267 234.165 133.635C236.19 134.003 238.304 134.094 240.382 133.903C242.46 133.712 244.461 133.242 246.267 132.523C248.072 131.803 249.646 130.846 250.897 129.71C252.147 128.574 253.048 127.281 253.547 125.906C254.047 124.532 254.134 123.104 253.804 121.707C253.474 120.309 252.733 118.97 251.626 117.769C250.518 116.567 249.066 115.527 247.354 114.709C226.463 104.17 201.085 98.4673 175 98.45C148.915 98.4673 123.537 104.17 102.646 114.709C100.934 115.527 99.4817 116.567 98.3741 117.769C97.2666 118.97 96.5261 120.309 96.1961 121.707C95.8661 123.104 95.9533 124.532 96.4526 125.906C96.9518 127.281 97.8531 128.574 99.1034 129.71C100.354 130.846 101.928 131.803 103.733 132.523C105.539 133.242 107.54 133.712 109.618 133.903C111.696 134.094 113.81 134.003 115.835 133.635C117.86 133.267 119.756 132.63 121.411 131.761C136.877 123.943 155.676 119.71 175 119.694C194.324 119.71 213.123 123.943 228.589 131.761Z" fill="#FFA100"/>
</svg>
