<svg width="350" height="350" viewBox="0 0 350 350" fill="none" xmlns="http://www.w3.org/2000/svg">
<path d="M54.816 210V142.32H85.728C93.28 142.32 99.104 144.144 103.2 147.792C107.296 151.44 109.344 156.528 109.344 163.056C109.344 168.112 108.032 172.336 105.408 175.728C102.848 179.056 99.168 181.328 94.368 182.544C97.76 183.568 100.544 186.032 102.72 189.936L113.664 210H97.248L85.536 188.4C84.576 186.672 83.392 185.488 81.984 184.848C80.576 184.144 78.912 183.792 76.992 183.792H69.696V210H54.816ZM69.696 173.04H83.04C91.04 173.04 95.04 169.84 95.04 163.44C95.04 157.104 91.04 153.936 83.04 153.936H69.696V173.04Z" fill="#351D6B"/>
<path d="M142.86 210.976C135.868 210.976 130.345 208.645 126.292 203.984C122.239 199.323 120.212 192.939 120.212 184.832C120.212 176.928 122.188 170.595 126.14 165.832C130.193 161.069 135.767 158.688 142.86 158.688C145.9 158.688 149.092 159.499 152.436 161.12C155.78 162.741 158.668 165.731 161.1 170.088C163.633 165.731 166.521 162.741 169.764 161.12C173.007 159.499 176.148 158.688 179.188 158.688C186.281 158.688 191.855 161.069 195.908 165.832C199.961 170.595 201.988 176.928 201.988 184.832C201.988 192.939 199.911 199.323 195.756 203.984C191.703 208.645 186.18 210.976 179.188 210.976C176.148 210.976 173.007 210.165 169.764 208.544C166.521 206.923 163.633 203.883 161.1 199.424C158.668 203.883 155.78 206.923 152.436 208.544C149.092 210.165 145.9 210.976 142.86 210.976ZM143.772 196.992C146.204 196.992 148.535 196.08 150.764 194.256C152.993 192.331 154.767 189.139 156.084 184.68C154.767 180.221 152.993 177.131 150.764 175.408C148.535 173.584 146.204 172.672 143.772 172.672C140.833 172.672 138.553 173.888 136.932 176.32C135.311 178.651 134.5 181.488 134.5 184.832C134.5 188.176 135.311 191.064 136.932 193.496C138.553 195.827 140.833 196.992 143.772 196.992ZM178.428 196.992C181.265 196.992 183.495 195.827 185.116 193.496C186.839 191.064 187.7 188.176 187.7 184.832C187.7 181.488 186.839 178.651 185.116 176.32C183.495 173.888 181.265 172.672 178.428 172.672C175.996 172.672 173.665 173.584 171.436 175.408C169.207 177.131 167.433 180.221 166.116 184.68C167.433 189.139 169.207 192.331 171.436 194.256C173.665 196.08 175.996 196.992 178.428 196.992Z" fill="#351D6B"/>
<path d="M229.904 211.056C225.808 211.056 222.192 210.064 219.056 208.08C215.984 206.032 213.584 203.184 211.856 199.536C210.128 195.824 209.264 191.44 209.264 186.384C209.264 181.328 210.128 176.976 211.856 173.328C213.584 169.68 215.984 166.864 219.056 164.88C222.192 162.896 225.808 161.904 229.904 161.904C233.04 161.904 235.92 162.576 238.544 163.92C241.168 165.264 243.152 167.056 244.496 169.296V142.32H258.992V210H244.784V202.896C243.504 205.392 241.52 207.376 238.832 208.848C236.208 210.32 233.232 211.056 229.904 211.056ZM234.224 200.208C237.296 200.208 239.792 199.088 241.712 196.848C243.696 194.608 244.688 191.12 244.688 186.384C244.688 181.712 243.696 178.288 241.712 176.112C239.792 173.872 237.296 172.752 234.224 172.752C231.152 172.752 228.656 173.872 226.736 176.112C224.816 178.288 223.856 181.712 223.856 186.384C223.856 191.12 224.816 194.608 226.736 196.848C228.656 199.088 231.152 200.208 234.224 200.208Z" fill="#351D6B"/>
<path d="M269.992 153.744V140.208H285.64V153.744H269.992ZM270.568 210V162.864H285.064V210H270.568Z" fill="#351D6B"/>
<path d="M188.134 152.866C188.972 153.306 189.932 153.629 190.957 153.815C191.982 154.001 193.053 154.047 194.105 153.951C195.157 153.854 196.17 153.616 197.084 153.252C197.999 152.887 198.796 152.403 199.429 151.828C200.062 151.253 200.518 150.598 200.771 149.902C201.024 149.206 201.068 148.483 200.901 147.776C200.734 147.068 200.359 146.39 199.798 145.782C199.237 145.173 198.502 144.646 197.635 144.232C187.057 138.896 174.207 136.009 161 136C147.793 136.009 134.943 138.896 124.365 144.232C123.498 144.646 122.763 145.173 122.202 145.782C121.641 146.39 121.266 147.068 121.099 147.776C120.932 148.483 120.976 149.206 121.229 149.902C121.482 150.598 121.938 151.253 122.571 151.828C123.204 152.403 124.001 152.887 124.916 153.252C125.83 153.616 126.843 153.854 127.895 153.951C128.947 154.047 130.018 154.001 131.043 153.815C132.068 153.629 133.028 153.306 133.866 152.866C141.697 148.908 151.215 146.765 161 146.757C170.785 146.765 180.303 148.908 188.134 152.866Z" fill="#FFA100"/>
</svg>
